<svg width="20" height="20" viewBox="0 0 20 20" fill="none" xmlns="http://www.w3.org/2000/svg">
<mask id="mask0_1169_6577" style="mask-type:alpha" maskUnits="userSpaceOnUse" x="0" y="0" width="20" height="20">
<rect width="20" height="20" fill="#D9D9D9"/>
</mask>
<g mask="url(#mask0_1169_6577)">
<path d="M9.25 10.75V13.25C9.25 13.4625 9.32146 13.6406 9.46438 13.7844C9.60729 13.9281 9.78438 14 9.99563 14C10.2069 14 10.3854 13.9281 10.5312 13.7844C10.6771 13.6406 10.75 13.4625 10.75 13.25V10.75H13.25C13.4625 10.75 13.6406 10.6785 13.7844 10.5356C13.9281 10.3927 14 10.2156 14 10.0044C14 9.79313 13.9281 9.61458 13.7844 9.46875C13.6406 9.32292 13.4625 9.25 13.25 9.25H10.75V6.75C10.75 6.5375 10.6785 6.35938 10.5356 6.21562C10.3927 6.07187 10.2156 6 10.0044 6C9.79313 6 9.61458 6.07187 9.46875 6.21562C9.32292 6.35938 9.25 6.5375 9.25 6.75V9.25H6.75C6.5375 9.25 6.35938 9.32146 6.21563 9.46438C6.07188 9.60729 6 9.78438 6 9.99563C6 10.2069 6.07188 10.3854 6.21563 10.5312C6.35938 10.6771 6.5375 10.75 6.75 10.75H9.25ZM10.0058 18C8.90472 18 7.86806 17.7917 6.89583 17.375C5.92361 16.9583 5.07292 16.3854 4.34375 15.6562C3.61458 14.9271 3.04167 14.0767 2.625 13.105C2.20833 12.1333 2 11.0951 2 9.99042C2 8.88569 2.20833 7.85069 2.625 6.88542C3.04167 5.92014 3.61458 5.07292 4.34375 4.34375C5.07292 3.61458 5.92333 3.04167 6.895 2.625C7.86667 2.20833 8.90486 2 10.0096 2C11.1143 2 12.1493 2.20833 13.1146 2.625C14.0799 3.04167 14.9271 3.61458 15.6562 4.34375C16.3854 5.07292 16.9583 5.92167 17.375 6.89C17.7917 7.85847 18 8.89319 18 9.99417C18 11.0953 17.7917 12.1319 17.375 13.1042C16.9583 14.0764 16.3854 14.9271 15.6562 15.6562C14.9271 16.3854 14.0783 16.9583 13.11 17.375C12.1415 17.7917 11.1068 18 10.0058 18Z" fill="#56585A"/>
</g>
</svg>
