<svg width="28" height="28" viewBox="0 0 28 28" fill="none" xmlns="http://www.w3.org/2000/svg">
<mask id="mask0_545_1851" style="mask-type:alpha" maskUnits="userSpaceOnUse" x="0" y="0" width="28" height="28">
<rect width="28" height="28" fill="#D9D9D9"/>
</mask>
<g mask="url(#mask0_545_1851)">
<path d="M8.52571 23.9173C7.94568 23.9173 7.44917 23.7108 7.03617 23.2978C6.62317 22.8848 6.41667 22.3883 6.41667 21.8083V7.00067H6.125C5.87708 7.00067 5.66932 6.91676 5.50171 6.74896C5.3339 6.58115 5.25 6.37329 5.25 6.12537C5.25 5.87726 5.3339 5.6695 5.50171 5.50208C5.66932 5.33447 5.87708 5.25067 6.125 5.25067H10.5C10.5 4.96503 10.6006 4.72158 10.8019 4.52033C11.0029 4.31928 11.2463 4.21875 11.5319 4.21875H16.4681C16.7537 4.21875 16.9971 4.31928 17.1981 4.52033C17.3994 4.72158 17.5 4.96503 17.5 5.25067H21.875C22.1229 5.25067 22.3307 5.33457 22.4983 5.50238C22.6661 5.67018 22.75 5.87804 22.75 6.12596C22.75 6.37407 22.6661 6.58183 22.4983 6.74925C22.3307 6.91686 22.1229 7.00067 21.875 7.00067H21.5833V21.8083C21.5833 22.3883 21.3768 22.8848 20.9638 23.2978C20.5508 23.7108 20.0543 23.9173 19.4743 23.9173H8.52571ZM19.8333 7.00067H8.16667V21.8083C8.16667 21.9131 8.20031 21.9991 8.26758 22.0664C8.33486 22.1337 8.4209 22.1673 8.52571 22.1673H19.4743C19.5791 22.1673 19.6651 22.1337 19.7324 22.0664C19.7997 21.9991 19.8333 21.9131 19.8333 21.8083V7.00067ZM12.4699 19.5826C12.6373 19.4148 12.721 19.2069 12.721 18.959V10.209C12.721 9.96108 12.6371 9.75322 12.4693 9.58542C12.3017 9.41781 12.0939 9.334 11.8458 9.334C11.5978 9.334 11.3901 9.41781 11.2225 9.58542C11.055 9.75322 10.9713 9.96108 10.9713 10.209V18.959C10.9713 19.2069 11.0551 19.4148 11.2228 19.5826C11.3906 19.7502 11.5985 19.834 11.8466 19.834C12.0945 19.834 12.3023 19.7502 12.4699 19.5826ZM16.7775 19.5826C16.945 19.4148 17.0287 19.2069 17.0287 18.959V10.209C17.0287 9.96108 16.9449 9.75322 16.7772 9.58542C16.6094 9.41781 16.4015 9.334 16.1534 9.334C15.9055 9.334 15.6977 9.41781 15.5301 9.58542C15.3627 9.75322 15.279 9.96108 15.279 10.209V18.959C15.279 19.2069 15.3629 19.4148 15.5307 19.5826C15.6983 19.7502 15.9061 19.834 16.1542 19.834C16.4022 19.834 16.6099 19.7502 16.7775 19.5826Z" fill="#E52222"/>
</g>
</svg>
