<svg width="24" height="24" viewBox="0 0 24 24" fill="none" xmlns="http://www.w3.org/2000/svg">
<mask id="mask0_256_196" style="mask-type:alpha" maskUnits="userSpaceOnUse" x="0" y="0" width="24" height="24">
<rect width="24" height="24" fill="#D9D9D9"/>
</mask>
<g mask="url(#mask0_256_196)">
<path d="M12.0004 12.9301L15.0734 16.0034C15.2119 16.1417 15.3651 16.2084 15.5331 16.2034C15.701 16.1982 15.8574 16.1232 16.0024 15.9784C16.1472 15.8334 16.2196 15.6785 16.2196 15.5139C16.2196 15.3492 16.1472 15.1948 16.0024 15.0506L12.9291 11.9889L16.0024 8.92712C16.1407 8.78945 16.2116 8.63662 16.2149 8.46862C16.2181 8.30078 16.1472 8.14437 16.0024 7.99937C15.8574 7.85453 15.7026 7.78212 15.5379 7.78212C15.3732 7.78212 15.2184 7.85453 15.0734 7.99937L12.0004 11.0726L8.92739 7.99937C8.78889 7.86103 8.63981 7.7902 8.48014 7.78687C8.32064 7.7837 8.16839 7.85453 8.02339 7.99937C7.87856 8.14437 7.80614 8.2992 7.80614 8.46387C7.80614 8.62853 7.87789 8.78337 8.02139 8.92837L11.0716 12.0014L7.99839 15.0744C7.86006 15.2129 7.79339 15.362 7.79839 15.5216C7.80356 15.6811 7.87856 15.8334 8.02339 15.9784C8.16839 16.1232 8.32322 16.1956 8.48789 16.1956C8.65256 16.1956 8.80664 16.1239 8.95014 15.9804L12.0004 12.9301ZM12.0089 21.1014C10.7571 21.1014 9.57806 20.8645 8.47189 20.3909C7.36572 19.9172 6.39756 19.2655 5.56739 18.4356C4.73722 17.6058 4.08514 16.6384 3.61114 15.5334C3.13731 14.4285 2.90039 13.248 2.90039 11.9916C2.90039 10.7353 3.13722 9.5582 3.61089 8.46037C4.08456 7.36253 4.73631 6.39853 5.56614 5.56837C6.39597 4.7382 7.36339 4.08612 8.46839 3.61212C9.57322 3.13828 10.7538 2.90137 12.0101 2.90137C13.2665 2.90137 14.4436 3.1382 15.5414 3.61187C16.6392 4.08553 17.6032 4.73728 18.4334 5.56712C19.2636 6.39695 19.9156 7.36237 20.3896 8.46337C20.8635 9.56453 21.1004 10.741 21.1004 11.9929C21.1004 13.2447 20.8636 14.4237 20.3899 15.5299C19.9162 16.636 19.2645 17.6042 18.4346 18.4344C17.6048 19.2645 16.6394 19.9166 15.5384 20.3906C14.4372 20.8645 13.2607 21.1014 12.0089 21.1014Z" fill="#D3D5D7"/>
</g>
</svg>
