<svg width="54" height="54" viewBox="0 0 54 54" fill="none" xmlns="http://www.w3.org/2000/svg">
<mask id="mask0_557_2722" style="mask-type:alpha" maskUnits="userSpaceOnUse" x="0" y="0" width="54" height="54">
<rect width="54" height="54" fill="#D9D9D9"/>
</mask>
<g mask="url(#mask0_557_2722)">
<path d="M26.9871 37.1936C27.4349 37.1936 27.8142 37.0421 28.1251 36.7391C28.4359 36.4361 28.5914 36.0607 28.5914 35.613C28.5914 35.1652 28.4399 34.7859 28.1369 34.475C27.8339 34.1645 27.4585 34.0093 27.0107 34.0093C26.563 34.0093 26.1837 34.1606 25.8728 34.4632C25.5619 34.7662 25.4065 35.1416 25.4065 35.5894C25.4065 36.0371 25.558 36.4164 25.861 36.7273C26.164 37.0382 26.5394 37.1936 26.9871 37.1936ZM26.9877 29.8727C27.3991 29.8727 27.7474 29.7324 28.0328 29.4519C28.3186 29.1718 28.4614 28.8245 28.4614 28.4102V17.8352C28.4614 17.4208 28.3223 17.0734 28.0441 16.7929C27.7658 16.5127 27.4212 16.3727 27.0102 16.3727C26.5988 16.3727 26.2504 16.5127 25.9651 16.7929C25.6793 17.0734 25.5364 17.4208 25.5364 17.8352V28.4102C25.5364 28.8245 25.6756 29.1718 25.9538 29.4519C26.2321 29.7324 26.5767 29.8727 26.9877 29.8727ZM27.0181 47.4744C24.2014 47.4744 21.5487 46.9415 19.0598 45.8758C16.5709 44.81 14.3926 43.3436 12.5247 41.4765C10.6568 39.6094 9.18961 37.4327 8.12311 34.9464C7.05699 32.4605 6.52393 29.8042 6.52393 26.9775C6.52393 24.1507 7.0568 21.5023 8.12255 19.0322C9.1883 16.562 10.6547 14.393 12.5219 12.5252C14.389 10.6573 16.5657 9.1901 19.0519 8.1236C21.5378 7.05748 24.1941 6.52441 27.0209 6.52441C29.8476 6.52441 32.4961 7.05729 34.9662 8.12304C37.4363 9.18879 39.6053 10.6552 41.4732 12.5224C43.3411 14.3895 44.8082 16.5617 45.8747 19.0389C46.9409 21.5165 47.4739 24.1637 47.4739 26.9803C47.4739 29.7969 46.9411 32.4497 45.8753 34.9385C44.8096 37.4274 43.3431 39.6058 41.476 41.4737C39.6089 43.3415 37.4367 44.8087 34.9594 45.8752C32.4818 46.9414 29.8347 47.4744 27.0181 47.4744Z" fill="#D3D5D7"/>
</g>
</svg>
