<svg width="16" height="16" viewBox="0 0 16 16" fill="none" xmlns="http://www.w3.org/2000/svg">
<mask id="mask0_253_466" style="mask-type:alpha" maskUnits="userSpaceOnUse" x="0" y="0" width="16" height="16">
<rect width="16" height="16" fill="#D9D9D9"/>
</mask>
<g mask="url(#mask0_253_466)">
<path d="M8.4251 11.0281C8.54176 10.9138 8.6001 10.7721 8.6001 10.6031C8.6001 10.4341 8.54293 10.2913 8.4286 10.1746C8.31426 10.0579 8.1726 9.99961 8.0036 9.99961C7.8346 9.99961 7.69176 10.0568 7.5751 10.1711C7.45843 10.2854 7.4001 10.4271 7.4001 10.5961C7.4001 10.7651 7.45726 10.9079 7.5716 11.0246C7.68593 11.1413 7.8276 11.1996 7.9966 11.1996C8.1656 11.1996 8.30843 11.1424 8.4251 11.0281ZM8.4251 8.62711C8.54176 8.51211 8.6001 8.36961 8.6001 8.19961V5.39961C8.6001 5.22961 8.54293 5.08711 8.4286 4.97211C8.31426 4.85711 8.1726 4.79961 8.0036 4.79961C7.8346 4.79961 7.69176 4.85711 7.5751 4.97211C7.45843 5.08711 7.4001 5.22961 7.4001 5.39961V8.19961C7.4001 8.36961 7.45726 8.51211 7.5716 8.62711C7.68593 8.74211 7.8276 8.79961 7.9966 8.79961C8.1656 8.79961 8.30843 8.74211 8.4251 8.62711ZM8.00476 14.3996C7.12388 14.3996 6.29454 14.2329 5.51676 13.8996C4.73899 13.5663 4.05843 13.1079 3.4751 12.5246C2.89176 11.9413 2.43343 11.2609 2.1001 10.4836C1.76676 9.70628 1.6001 8.87572 1.6001 7.99194C1.6001 7.10817 1.76676 6.28017 2.1001 5.50794C2.43343 4.73572 2.89176 4.05794 3.4751 3.47461C4.05843 2.89128 4.73876 2.43294 5.5161 2.09961C6.29343 1.76628 7.12399 1.59961 8.00776 1.59961C8.89154 1.59961 9.71954 1.76628 10.4918 2.09961C11.264 2.43294 11.9418 2.89128 12.5251 3.47461C13.1084 4.05794 13.5668 4.73694 13.9001 5.51161C14.2334 6.28639 14.4001 7.11417 14.4001 7.99494C14.4001 8.87583 14.2334 9.70516 13.9001 10.4829C13.5668 11.2607 13.1084 11.9413 12.5251 12.5246C11.9418 13.1079 11.2628 13.5663 10.4881 13.8996C9.71332 14.2329 8.88554 14.3996 8.00476 14.3996ZM8.0001 13.1996C9.44454 13.1996 10.6723 12.6941 11.6834 11.6829C12.6945 10.6718 13.2001 9.44405 13.2001 7.99961C13.2001 6.55516 12.6945 5.32739 11.6834 4.31628C10.6723 3.30517 9.44454 2.79961 8.0001 2.79961C6.55565 2.79961 5.32788 3.30517 4.31676 4.31628C3.30565 5.32739 2.8001 6.55516 2.8001 7.99961C2.8001 9.44405 3.30565 10.6718 4.31676 11.6829C5.32788 12.6941 6.55565 13.1996 8.0001 13.1996Z" fill="#E52222"/>
</g>
</svg>
