<svg width="20" height="20" viewBox="0 0 20 20" fill="none" xmlns="http://www.w3.org/2000/svg">
<path d="M4.16682 9.16699V16.3182C4.16682 16.8944 4.73861 17.3034 5.29028 17.1371C6.5152 16.7681 8.50076 16.2503 10.0002 16.2503C11.4995 16.2503 13.4851 16.7681 14.71 17.1371C15.2617 17.3034 15.8335 16.8944 15.8335 16.3182V9.16699M17.5002 8.33366V11.667M9.03862 3.7343L3.08176 6.21632C2.01504 6.66079 2.07093 8.19058 3.16725 8.55602L9.20959 10.5701C9.72275 10.7412 10.2776 10.7412 10.7907 10.5701L16.8331 8.55602C17.9294 8.19058 17.9853 6.66079 16.9185 6.21632L10.9617 3.7343C10.3463 3.47789 9.654 3.47789 9.03862 3.7343Z" stroke="#56585A" stroke-width="1.25" stroke-linecap="round" stroke-linejoin="round"/>
</svg>
