<svg width="24" height="24" viewBox="0 0 24 24" fill="none" xmlns="http://www.w3.org/2000/svg">
<mask id="mask0_253_516" style="mask-type:alpha" maskUnits="userSpaceOnUse" x="0" y="0" width="24" height="24">
<rect width="24" height="24" fill="#D9D9D9"/>
</mask>
<g mask="url(#mask0_253_516)">
<path d="M18.7095 20.5435L16.0653 17.905C15.4254 18.1498 14.7651 18.3438 14.0843 18.4868C13.4036 18.6298 12.7088 18.7013 11.9998 18.7013C9.94461 18.7013 8.0542 18.1663 6.32853 17.0965C4.60303 16.0265 3.22811 14.6005 2.20378 12.8185C2.12045 12.6917 2.0637 12.558 2.03353 12.4175C2.00336 12.2772 1.98828 12.1384 1.98828 12.0013C1.98828 11.8641 2.00911 11.7237 2.05078 11.58C2.09245 11.4365 2.15495 11.3045 2.23828 11.184C2.68695 10.4545 3.1732 9.75901 3.69703 9.09751C4.2207 8.43584 4.82161 7.84159 5.49978 7.31476L3.44203 5.26651C3.3037 5.12817 3.23286 4.97759 3.22953 4.81476C3.22636 4.65192 3.29403 4.50126 3.43253 4.36276C3.57736 4.21792 3.7322 4.14551 3.89703 4.14551C4.0617 4.14551 4.21645 4.21792 4.36128 4.36276L19.6383 19.6398C19.7768 19.7783 19.846 19.9288 19.846 20.0915C19.846 20.2543 19.7768 20.405 19.6383 20.5435C19.4934 20.6883 19.3386 20.7608 19.1738 20.7608C19.0091 20.7608 18.8544 20.6883 18.7095 20.5435ZM11.9998 15.7783C12.2716 15.7783 12.5418 15.7484 12.8103 15.6888C13.0789 15.6291 13.3428 15.5467 13.6018 15.4415L8.55953 10.3993C8.47736 10.6583 8.4007 10.9221 8.32953 11.1908C8.25837 11.4593 8.22278 11.7294 8.22278 12.0013C8.22278 13.0526 8.58945 13.9449 9.32278 14.6783C10.0561 15.4116 10.9484 15.7783 11.9998 15.7783ZM11.9998 5.30126C14.0613 5.30126 15.9606 5.83459 17.6978 6.90126C19.4349 7.96792 20.8125 9.40701 21.8305 11.2185C21.9074 11.3455 21.9624 11.4734 21.9958 11.6023C22.0291 11.7311 22.0458 11.8641 22.0458 12.0013C22.0458 12.1384 22.0234 12.2714 21.9785 12.4003C21.9337 12.5291 21.8811 12.657 21.8208 12.784C21.5169 13.3288 21.1814 13.8487 20.8143 14.3435C20.4469 14.8383 20.0312 15.3031 19.567 15.7378C19.3927 15.9121 19.1799 15.9951 18.9285 15.9868C18.6774 15.9784 18.4645 15.8871 18.29 15.7128L15.919 13.3513C15.8319 13.2641 15.7716 13.1567 15.7383 13.029C15.7049 12.9015 15.6985 12.7807 15.719 12.6665C15.733 12.5615 15.7461 12.449 15.7583 12.329C15.7706 12.2092 15.7768 12.0999 15.7768 12.0013C15.7768 10.9499 15.4101 10.0576 14.6768 9.32426C13.9434 8.59092 13.0511 8.22426 11.9998 8.22426C11.8844 8.22426 11.7726 8.23201 11.6643 8.24751C11.5559 8.26284 11.4524 8.27759 11.3535 8.29176C11.2395 8.31859 11.1213 8.31534 10.9988 8.28201C10.8764 8.24867 10.7717 8.18842 10.6845 8.10126L9.55353 6.97051C9.30236 6.71917 9.22036 6.42109 9.30753 6.07626C9.3947 5.73142 9.61395 5.52376 9.96528 5.45326C10.3101 5.37626 10.6492 5.33167 10.9825 5.31951C11.3159 5.30734 11.6549 5.30126 11.9998 5.30126ZM13.7863 10.1878C13.9389 10.3276 14.0601 10.4863 14.1498 10.6638C14.2394 10.8413 14.3009 11.0313 14.3343 11.234C14.3676 11.3378 14.3349 11.4132 14.2363 11.46C14.1376 11.5067 14.0498 11.4916 13.9728 11.4148L12.6018 10.0283C12.5248 9.95126 12.5081 9.86342 12.5518 9.76476C12.5953 9.66609 12.6689 9.62509 12.7728 9.64176C12.9626 9.68526 13.144 9.75384 13.317 9.84751C13.4902 9.94101 13.6466 10.0544 13.7863 10.1878Z" fill="#D3D5D7"/>
</g>
</svg>
