<svg width="24" height="24" viewBox="0 0 24 24" fill="none" xmlns="http://www.w3.org/2000/svg">
<mask id="path-1-inside-1_1758_10225" fill="white">
<path fill-rule="evenodd" clip-rule="evenodd" d="M12 4.5641C15.9739 4.5641 19.1953 7.77847 19.1953 11.7436L19.195 16.8715L19.7221 16.8718C20.2898 16.8718 20.75 17.331 20.75 17.8974C20.75 18.4639 20.2898 18.9231 19.7221 18.9231H15.0837C15.0837 20.6224 13.7031 22 12 22C10.2969 22 8.9163 20.6224 8.9163 18.9231H4.2779C3.71021 18.9231 3.25 18.4639 3.25 17.8974C3.25 17.331 3.71021 16.8718 4.2779 16.8718L4.8045 16.8715L4.8047 11.7436C4.8047 7.77847 8.02614 4.5641 12 4.5641ZM13.0279 18.9231H10.9721C10.9721 19.4895 11.4323 19.9487 12 19.9487C12.5677 19.9487 13.0279 19.4895 13.0279 18.9231ZM12 6.61538C9.16153 6.61538 6.8605 8.91136 6.8605 11.7436V16.8718H17.1395V11.7436C17.1395 8.91136 14.8385 6.61538 12 6.61538ZM13.0279 2C13.5956 2 14.0558 2.4592 14.0558 3.02564C14.0558 3.59209 13.5956 4.05128 13.0279 4.05128H10.9721C10.4044 4.05128 9.9442 3.59209 9.9442 3.02564C9.9442 2.4592 10.4044 2 10.9721 2H13.0279Z"/>
</mask>
<path fill-rule="evenodd" clip-rule="evenodd" d="M12 4.5641C15.9739 4.5641 19.1953 7.77847 19.1953 11.7436L19.195 16.8715L19.7221 16.8718C20.2898 16.8718 20.75 17.331 20.75 17.8974C20.75 18.4639 20.2898 18.9231 19.7221 18.9231H15.0837C15.0837 20.6224 13.7031 22 12 22C10.2969 22 8.9163 20.6224 8.9163 18.9231H4.2779C3.71021 18.9231 3.25 18.4639 3.25 17.8974C3.25 17.331 3.71021 16.8718 4.2779 16.8718L4.8045 16.8715L4.8047 11.7436C4.8047 7.77847 8.02614 4.5641 12 4.5641ZM13.0279 18.9231H10.9721C10.9721 19.4895 11.4323 19.9487 12 19.9487C12.5677 19.9487 13.0279 19.4895 13.0279 18.9231ZM12 6.61538C9.16153 6.61538 6.8605 8.91136 6.8605 11.7436V16.8718H17.1395V11.7436C17.1395 8.91136 14.8385 6.61538 12 6.61538ZM13.0279 2C13.5956 2 14.0558 2.4592 14.0558 3.02564C14.0558 3.59209 13.5956 4.05128 13.0279 4.05128H10.9721C10.4044 4.05128 9.9442 3.59209 9.9442 3.02564C9.9442 2.4592 10.4044 2 10.9721 2H13.0279Z" fill="#56585A"/>
<path d="M19.1953 11.7436L19.3953 11.7436V11.7436H19.1953ZM19.195 16.8715L18.995 16.8715L18.995 17.0714L19.1949 17.0715L19.195 16.8715ZM19.7221 16.8718L19.722 17.0718H19.7221V16.8718ZM15.0837 18.9231V18.7231H14.8837V18.9231H15.0837ZM8.9163 18.9231H9.1163V18.7231H8.9163V18.9231ZM4.2779 16.8718V17.0718H4.27801L4.2779 16.8718ZM4.8045 16.8715L4.80461 17.0715L5.00449 17.0714L5.0045 16.8715L4.8045 16.8715ZM4.8047 11.7436L5.0047 11.7436V11.7436H4.8047ZM13.0279 18.9231H13.2279V18.7231H13.0279V18.9231ZM10.9721 18.9231V18.7231H10.7721V18.9231H10.9721ZM6.8605 16.8718H6.6605V17.0718H6.8605V16.8718ZM17.1395 16.8718V17.0718H17.3395V16.8718H17.1395ZM12 4.5641V4.7641C15.8638 4.7641 18.9953 7.88934 18.9953 11.7436H19.1953H19.3953C19.3953 7.6676 16.0839 4.3641 12 4.3641V4.5641ZM19.1953 11.7436L18.9953 11.7436L18.995 16.8715L19.195 16.8715L19.395 16.8715L19.3953 11.7436L19.1953 11.7436ZM19.195 16.8715L19.1949 17.0715L19.722 17.0718L19.7221 16.8718L19.7222 16.6718L19.1951 16.6715L19.195 16.8715ZM19.7221 16.8718V17.0718C20.1798 17.0718 20.55 17.4419 20.55 17.8974H20.75H20.95C20.95 17.2201 20.3998 16.6718 19.7221 16.6718V16.8718ZM20.75 17.8974H20.55C20.55 18.353 20.1798 18.7231 19.7221 18.7231V18.9231V19.1231C20.3998 19.1231 20.95 18.5748 20.95 17.8974H20.75ZM19.7221 18.9231V18.7231H15.0837V18.9231V19.1231H19.7221V18.9231ZM15.0837 18.9231H14.8837C14.8837 20.5115 13.593 21.8 12 21.8V22V22.2C13.8131 22.2 15.2837 20.7333 15.2837 18.9231H15.0837ZM12 22V21.8C10.407 21.8 9.1163 20.5115 9.1163 18.9231H8.9163H8.7163C8.7163 20.7333 10.1869 22.2 12 22.2V22ZM8.9163 18.9231V18.7231H4.2779V18.9231V19.1231H8.9163V18.9231ZM4.2779 18.9231V18.7231C3.82025 18.7231 3.45 18.353 3.45 17.8974H3.25H3.05C3.05 18.5748 3.60016 19.1231 4.2779 19.1231V18.9231ZM3.25 17.8974H3.45C3.45 17.4419 3.82025 17.0718 4.2779 17.0718V16.8718V16.6718C3.60016 16.6718 3.05 17.2201 3.05 17.8974H3.25ZM4.2779 16.8718L4.27801 17.0718L4.80461 17.0715L4.8045 16.8715L4.80439 16.6715L4.27779 16.6718L4.2779 16.8718ZM4.8045 16.8715L5.0045 16.8715L5.0047 11.7436L4.8047 11.7436L4.6047 11.7436L4.6045 16.8715L4.8045 16.8715ZM4.8047 11.7436H5.0047C5.0047 7.88934 8.13619 4.7641 12 4.7641V4.5641V4.3641C7.9161 4.3641 4.6047 7.6676 4.6047 11.7436H4.8047ZM13.0279 18.9231V18.7231H10.9721V18.9231V19.1231H13.0279V18.9231ZM10.9721 18.9231H10.7721C10.7721 19.6004 11.3223 20.1487 12 20.1487V19.9487V19.7487C11.5423 19.7487 11.1721 19.3787 11.1721 18.9231H10.9721ZM12 19.9487V20.1487C12.6777 20.1487 13.2279 19.6004 13.2279 18.9231H13.0279H12.8279C12.8279 19.3787 12.4577 19.7487 12 19.7487V19.9487ZM12 6.61538V6.41538C9.05149 6.41538 6.6605 8.80049 6.6605 11.7436H6.8605H7.0605C7.0605 9.02223 9.27157 6.81538 12 6.81538V6.61538ZM6.8605 11.7436H6.6605V16.8718H6.8605H7.0605V11.7436H6.8605ZM6.8605 16.8718V17.0718H17.1395V16.8718V16.6718H6.8605V16.8718ZM17.1395 16.8718H17.3395V11.7436H17.1395H16.9395V16.8718H17.1395ZM17.1395 11.7436H17.3395C17.3395 8.80049 14.9485 6.41538 12 6.41538V6.61538V6.81538C14.7284 6.81538 16.9395 9.02223 16.9395 11.7436H17.1395ZM13.0279 2V2.2C13.4856 2.2 13.8558 2.57007 13.8558 3.02564H14.0558H14.2558C14.2558 2.34832 13.7056 1.8 13.0279 1.8V2ZM14.0558 3.02564H13.8558C13.8558 3.48122 13.4856 3.85128 13.0279 3.85128V4.05128V4.25128C13.7056 4.25128 14.2558 3.70296 14.2558 3.02564H14.0558ZM13.0279 4.05128V3.85128H10.9721V4.05128V4.25128H13.0279V4.05128ZM10.9721 4.05128V3.85128C10.5144 3.85128 10.1442 3.48122 10.1442 3.02564H9.9442H9.7442C9.7442 3.70296 10.2944 4.25128 10.9721 4.25128V4.05128ZM9.9442 3.02564H10.1442C10.1442 2.57007 10.5144 2.2 10.9721 2.2V2V1.8C10.2944 1.8 9.7442 2.34832 9.7442 3.02564H9.9442ZM10.9721 2V2.2H13.0279V2V1.8H10.9721V2Z" fill="white" mask="url(#path-1-inside-1_1758_10225)"/>
<circle cx="17.9912" cy="7.56641" r="3.00696" fill="#FF6363" stroke="white" stroke-width="0.859131"/>
</svg>
