<svg width="24" height="24" viewBox="0 0 24 24" fill="none" xmlns="http://www.w3.org/2000/svg">
<mask id="mask0_1563_10504" style="mask-type:alpha" maskUnits="userSpaceOnUse" x="0" y="0" width="24" height="24">
<rect width="24" height="24" fill="#D9D9D9"/>
</mask>
<g mask="url(#mask0_1563_10504)">
<path d="M2.70011 17.6252C2.50011 17.4252 2.40428 17.1877 2.41261 16.9127C2.42094 16.6377 2.51678 16.4085 2.70011 16.2252L7.97511 10.8752C8.35844 10.4919 8.83344 10.3002 9.40011 10.3002C9.96678 10.3002 10.4418 10.4919 10.8251 10.8752L13.4001 13.4752L18.6001 8.3252H17.0001C16.7168 8.3252 16.4793 8.22936 16.2876 8.0377C16.0959 7.84603 16.0001 7.60853 16.0001 7.3252C16.0001 7.04186 16.0959 6.80436 16.2876 6.6127C16.4793 6.42103 16.7168 6.3252 17.0001 6.3252H21.0001C21.2834 6.3252 21.5209 6.42103 21.7126 6.6127C21.9043 6.80436 22.0001 7.04186 22.0001 7.3252V11.3252C22.0001 11.6085 21.9043 11.846 21.7126 12.0377C21.5209 12.2294 21.2834 12.3252 21.0001 12.3252C20.7168 12.3252 20.4793 12.2294 20.2876 12.0377C20.0959 11.846 20.0001 11.6085 20.0001 11.3252V9.7252L14.8251 14.9002C14.4418 15.2835 13.9668 15.4752 13.4001 15.4752C12.8334 15.4752 12.3584 15.2835 11.9751 14.9002L9.40011 12.3252L4.10011 17.6252C3.91678 17.8085 3.68344 17.9002 3.40011 17.9002C3.11678 17.9002 2.88344 17.8085 2.70011 17.6252Z" fill="#5299A4"/>
</g>
</svg>
