<svg width="20" height="20" viewBox="0 0 20 20" fill="none" xmlns="http://www.w3.org/2000/svg">
<path d="M2.60786 5.7323L14.134 0.986243C16.5998 -0.02909 19.0656 2.43672 18.0503 4.90253L13.3042 16.4287C12.3403 18.7696 9.08902 18.9377 7.88878 16.7087L6.2269 13.6224C6.04135 13.2778 5.75876 12.9952 5.41416 12.8096L2.32782 11.1477C0.0988088 9.94751 0.266944 6.69621 2.60786 5.7323Z" fill="white"/>
<path d="M10.8923 8.1443L5.9425 13.094M14.134 0.986243L2.60786 5.7323C0.266944 6.69621 0.0988088 9.94751 2.32782 11.1477L5.41416 12.8096C5.75876 12.9952 6.04135 13.2778 6.2269 13.6224L7.88878 16.7087C9.08902 18.9377 12.3403 18.7696 13.3042 16.4287L18.0503 4.90253C19.0656 2.43672 16.5998 -0.0290901 14.134 0.986243Z" stroke="#66BFCD" stroke-width="1.5" stroke-linecap="round" stroke-linejoin="round"/>
</svg>
