<svg width="20" height="20" viewBox="0 0 20 20" fill="none" xmlns="http://www.w3.org/2000/svg">
<path d="M8.90063 3.26811C9.43032 2.49657 10.5693 2.49657 11.099 3.26811C11.4569 3.78948 12.1319 3.98767 12.7149 3.74258C13.5776 3.37989 14.5358 3.99566 14.5642 4.9311C14.5835 5.56322 15.0441 6.09485 15.6671 6.20386C16.589 6.36517 17.0621 7.40121 16.5803 8.20355C16.2548 8.74572 16.3549 9.44202 16.82 9.87051C17.5083 10.5046 17.3462 11.632 16.5071 12.0465C15.9401 12.3266 15.6479 12.9665 15.8075 13.5784C16.0437 14.484 15.2979 15.3447 14.3679 15.2398C13.7395 15.1689 13.1477 15.5492 12.9512 16.1503C12.6603 17.0398 11.5675 17.3607 10.8419 16.7696C10.3515 16.3702 9.64808 16.3702 9.15775 16.7696C8.43215 17.3607 7.33932 17.0398 7.04845 16.1503C6.8519 15.5492 6.26012 15.1689 5.63169 15.2398C4.70172 15.3447 3.95586 14.484 4.19208 13.5784C4.3517 12.9665 4.05948 12.3266 3.49248 12.0465C2.6534 11.632 2.49131 10.5046 3.17962 9.87051C3.64474 9.44202 3.74485 8.74572 3.41929 8.20355C2.93751 7.40121 3.41065 6.36517 4.33252 6.20386C4.95547 6.09485 5.41613 5.56322 5.43537 4.9311C5.46385 3.99566 6.42201 3.37989 7.28474 3.74258C7.86773 3.98767 8.54269 3.78948 8.90063 3.26811Z" fill="#5299A4" stroke="#5299A4" stroke-width="1.25" stroke-linecap="round" stroke-linejoin="round"/>
<path d="M12.2918 8.53418L9.71515 11.2112C9.38733 11.5518 8.84216 11.5518 8.51434 11.2112L7.7085 10.374" stroke="white" stroke-width="1.25" stroke-linecap="round" stroke-linejoin="round"/>
</svg>
