<svg width="24" height="24" viewBox="0 0 24 24" fill="none" xmlns="http://www.w3.org/2000/svg">
<mask id="mask0_256_195" style="mask-type:alpha" maskUnits="userSpaceOnUse" x="0" y="0" width="24" height="24">
<rect width="24" height="24" fill="#D9D9D9"/>
</mask>
<g mask="url(#mask0_256_195)">
<path d="M12.0022 15.7788C13.052 15.7788 13.9436 15.4113 14.6769 14.6765C15.4102 13.9417 15.7769 13.0493 15.7769 11.9995C15.7769 10.9497 15.4095 10.0581 14.6747 9.32476C13.9398 8.59142 13.0475 8.22476 11.9977 8.22476C10.9478 8.22476 10.0562 8.59218 9.32291 9.32701C8.58957 10.0618 8.22291 10.9542 8.22291 12.004C8.22291 13.0538 8.59032 13.9454 9.32516 14.6788C10.06 15.4121 10.9523 15.7788 12.0022 15.7788ZM11.9999 14.4018C11.3332 14.4018 10.7666 14.1684 10.2999 13.7018C9.83324 13.2351 9.59991 12.6684 9.59991 12.0018C9.59991 11.3351 9.83324 10.7684 10.2999 10.3018C10.7666 9.83509 11.3332 9.60176 11.9999 9.60176C12.6666 9.60176 13.2332 9.83509 13.6999 10.3018C14.1666 10.7684 14.3999 11.3351 14.3999 12.0018C14.3999 12.6684 14.1666 13.2351 13.6999 13.7018C13.2332 14.1684 12.6666 14.4018 11.9999 14.4018ZM11.9999 18.7018C9.96141 18.7018 8.08191 18.161 6.36141 17.0795C4.64091 15.9982 3.26016 14.5748 2.21916 12.8095C2.13582 12.6825 2.07907 12.5522 2.04891 12.4185C2.01891 12.2848 2.00391 12.1477 2.00391 12.007C2.00391 11.8663 2.01891 11.7274 2.04891 11.5903C2.07907 11.4531 2.13582 11.321 2.21916 11.194C3.26016 9.42867 4.64091 8.00534 6.36141 6.92401C8.08191 5.84251 9.96141 5.30176 11.9999 5.30176C14.0384 5.30176 15.9179 5.84251 17.6384 6.92401C19.3589 8.00534 20.7397 9.42867 21.7807 11.194C21.864 11.321 21.9207 11.4513 21.9509 11.585C21.9809 11.7187 21.9959 11.8558 21.9959 11.9965C21.9959 12.1372 21.9809 12.2761 21.9509 12.4133C21.9207 12.5504 21.864 12.6825 21.7807 12.8095C20.7397 14.5748 19.3589 15.9982 17.6384 17.0795C15.9179 18.161 14.0384 18.7018 11.9999 18.7018Z" fill="#D3D5D7"/>
</g>
</svg>
