<svg width="20" height="20" viewBox="0 0 20 20" fill="none" xmlns="http://www.w3.org/2000/svg">
<mask id="mask0_1758_10762" style="mask-type:alpha" maskUnits="userSpaceOnUse" x="0" y="0" width="20" height="20">
<rect width="20" height="20" fill="#D9D9D9"/>
</mask>
<g mask="url(#mask0_1758_10762)">
<path d="M10.8748 10.0003L7.45817 6.58366C7.30539 6.43088 7.229 6.2538 7.229 6.05241C7.229 5.85102 7.30539 5.67394 7.45817 5.52116C7.61095 5.36838 7.78803 5.29199 7.98942 5.29199C8.19081 5.29199 8.36789 5.36838 8.52067 5.52116L12.479 9.47949C12.5484 9.54894 12.6005 9.6288 12.6353 9.71908C12.67 9.80935 12.6873 9.9031 12.6873 10.0003C12.6873 10.0975 12.67 10.1913 12.6353 10.2816C12.6005 10.3719 12.5484 10.4517 12.479 10.5212L8.52067 14.4795C8.36789 14.6323 8.19428 14.7052 7.99984 14.6982C7.80539 14.6913 7.63178 14.6114 7.479 14.4587C7.32623 14.3059 7.24984 14.1288 7.24984 13.9274C7.24984 13.726 7.32623 13.5489 7.479 13.3962L10.8748 10.0003Z" fill="#242628"/>
</g>
</svg>
