<svg width="20" height="20" viewBox="0 0 20 20" fill="none" xmlns="http://www.w3.org/2000/svg">
<mask id="mask0_561_2734" style="mask-type:alpha" maskUnits="userSpaceOnUse" x="0" y="0" width="20" height="20">
<rect width="20" height="20" fill="#D9D9D9"/>
</mask>
<g mask="url(#mask0_561_2734)">
<path d="M9.04167 10.0003L12.4583 6.58366C12.6111 6.43088 12.6875 6.2538 12.6875 6.05241C12.6875 5.85102 12.6111 5.67394 12.4583 5.52116C12.3056 5.36838 12.1285 5.29199 11.9271 5.29199C11.7257 5.29199 11.5486 5.36838 11.3958 5.52116L7.4375 9.47949C7.36806 9.54894 7.31597 9.6288 7.28125 9.71908C7.24653 9.80935 7.22917 9.9031 7.22917 10.0003C7.22917 10.0975 7.24653 10.1913 7.28125 10.2816C7.31597 10.3719 7.36806 10.4517 7.4375 10.5212L11.3958 14.4795C11.5486 14.6323 11.7222 14.7052 11.9167 14.6982C12.1111 14.6913 12.2847 14.6114 12.4375 14.4587C12.5903 14.3059 12.6667 14.1288 12.6667 13.9274C12.6667 13.726 12.5903 13.5489 12.4375 13.3962L9.04167 10.0003Z" fill="#242628"/>
</g>
</svg>
