<svg width="20" height="20" viewBox="0 0 20 20" fill="none" xmlns="http://www.w3.org/2000/svg">
<mask id="mask0_626_3795" style="mask-type:alpha" maskUnits="userSpaceOnUse" x="0" y="0" width="20" height="20">
<rect width="20" height="20" fill="#D9D9D9"/>
</mask>
<g mask="url(#mask0_626_3795)">
<path d="M9.96322 10.9124L6.54655 7.49577C6.39377 7.34299 6.21669 7.2666 6.0153 7.2666C5.81391 7.2666 5.63683 7.34299 5.48405 7.49577C5.33127 7.64855 5.25488 7.82563 5.25488 8.02702C5.25488 8.22841 5.33127 8.40549 5.48405 8.55827L9.44238 12.5166C9.51183 12.586 9.59169 12.6381 9.68197 12.6729C9.77224 12.7076 9.86599 12.7249 9.96322 12.7249C10.0604 12.7249 10.1542 12.7076 10.2445 12.6729C10.3347 12.6381 10.4146 12.586 10.484 12.5166L14.4424 8.55827C14.5952 8.40549 14.6681 8.23188 14.6611 8.03743C14.6542 7.84299 14.5743 7.66938 14.4215 7.5166C14.2688 7.36382 14.0917 7.28743 13.8903 7.28743C13.6889 7.28743 13.5118 7.36382 13.359 7.5166L9.96322 10.9124Z" fill="#56585A"/>
</g>
</svg>
