<svg width="20" height="20" viewBox="0 0 20 20" fill="none" xmlns="http://www.w3.org/2000/svg">
<mask id="mask0_626_3769" style="mask-type:alpha" maskUnits="userSpaceOnUse" x="0" y="0" width="20" height="20">
<rect width="20" height="20" fill="#D9D9D9"/>
</mask>
<g mask="url(#mask0_626_3769)">
<path d="M9.95329 9.07878L13.37 12.4954C13.5227 12.6482 13.6998 12.7246 13.9012 12.7246C14.1026 12.7246 14.2797 12.6482 14.4325 12.4954C14.5852 12.3427 14.6616 12.1656 14.6616 11.9642C14.6616 11.7628 14.5852 11.5857 14.4325 11.4329L10.4741 7.47461C10.4047 7.40516 10.3248 7.35308 10.2345 7.31836C10.1443 7.28364 10.0505 7.26628 9.95329 7.26628C9.85607 7.26628 9.76232 7.28364 9.67204 7.31836C9.58176 7.35308 9.5019 7.40516 9.43245 7.47461L5.47412 11.4329C5.32134 11.5857 5.24843 11.7593 5.25537 11.9538C5.26232 12.1482 5.34218 12.3218 5.49495 12.4746C5.64773 12.6274 5.82481 12.7038 6.0262 12.7038C6.22759 12.7038 6.40468 12.6274 6.55745 12.4746L9.95329 9.07878Z" fill="#56585A"/>
</g>
</svg>
