<svg width="24" height="24" viewBox="0 0 24 24" fill="none" xmlns="http://www.w3.org/2000/svg">
<mask id="mask0_264_1383" style="mask-type:alpha" maskUnits="userSpaceOnUse" x="0" y="0" width="24" height="24">
<rect width="24" height="24" fill="#D9D9D9"/>
</mask>
<g mask="url(#mask0_264_1383)">
<path d="M11.0923 14.8736L6.47227 10.2536C6.3806 10.1619 6.31185 10.0656 6.26602 9.9648C6.22018 9.86397 6.19727 9.75855 6.19727 9.64855C6.19727 9.42855 6.27977 9.22689 6.44477 9.04355C6.60977 8.86022 6.8206 8.76855 7.07727 8.76855H16.9223C17.1789 8.76855 17.3898 8.86022 17.5548 9.04355C17.7198 9.22689 17.8023 9.42855 17.8023 9.64855C17.8023 9.72189 17.7106 9.92355 17.5273 10.2536L12.9073 14.8736C12.7789 15.0019 12.6368 15.0936 12.481 15.1486C12.3252 15.2036 12.1648 15.2311 11.9998 15.2311C11.8348 15.2311 11.6743 15.2036 11.5185 15.1486C11.3627 15.0936 11.2206 15.0019 11.0923 14.8736Z" fill="#56585A"/>
</g>
</svg>
