<svg width="24" height="24" viewBox="0 0 24 24" fill="none" xmlns="http://www.w3.org/2000/svg">
<mask id="mask0_264_1382" style="mask-type:alpha" maskUnits="userSpaceOnUse" x="0" y="0" width="24" height="24">
<rect width="24" height="24" fill="#D9D9D9"/>
</mask>
<g mask="url(#mask0_264_1382)">
<path d="M7.07727 15.2311C6.8206 15.2311 6.60977 15.1394 6.44477 14.9561C6.27977 14.7727 6.19727 14.5711 6.19727 14.3511C6.19727 14.2777 6.28893 14.0761 6.47227 13.7461L11.0923 9.12605C11.2206 8.99772 11.3627 8.90605 11.5185 8.85105C11.6743 8.79605 11.8348 8.76855 11.9998 8.76855C12.1648 8.76855 12.3252 8.79605 12.481 8.85105C12.6368 8.90605 12.7789 8.99772 12.9073 9.12605L17.5273 13.7461C17.6189 13.8377 17.6877 13.934 17.7335 14.0348C17.7793 14.1356 17.8023 14.2411 17.8023 14.3511C17.8023 14.5711 17.7198 14.7727 17.5548 14.9561C17.3898 15.1394 17.1789 15.2311 16.9223 15.2311H7.07727Z" fill="#56585A"/>
</g>
</svg>
