<svg width="24" height="24" viewBox="0 0 24 24" fill="none" xmlns="http://www.w3.org/2000/svg">
<path d="M13.5932 9.80171C14.0764 8.49579 15.9235 8.49579 16.4067 9.80171L17.1914 11.9223C17.3433 12.3329 17.6671 12.6566 18.0776 12.8085L20.1982 13.5932C21.5041 14.0764 21.5041 15.9235 20.1982 16.4067L18.0776 17.1914C17.6671 17.3433 17.3433 17.6671 17.1914 18.0776L16.4067 20.1982C15.9235 21.5041 14.0764 21.5041 13.5932 20.1982L12.8085 18.0776C12.6566 17.6671 12.3329 17.3433 11.9223 17.1914L9.80171 16.4067C8.49579 15.9235 8.49579 14.0764 9.80171 13.5932L11.9223 12.8085C12.3329 12.6566 12.6566 12.3329 12.8085 11.9223L13.5932 9.80171Z" fill="#242628"/>
<path d="M5.59318 3.80171C6.07641 2.49578 7.92349 2.49578 8.40673 3.80171L8.65123 4.46246C8.80316 4.87304 9.12687 5.19675 9.53745 5.34868L10.1982 5.59318C11.5041 6.07641 11.5041 7.92349 10.1982 8.40673L9.53745 8.65123C9.12687 8.80316 8.80316 9.12687 8.65123 9.53745L8.40673 10.1982C7.92349 11.5041 6.07641 11.5041 5.59318 10.1982L5.34868 9.53745C5.19675 9.12687 4.87303 8.80316 4.46246 8.65123L3.80171 8.40673C2.49578 7.92349 2.49578 6.07641 3.80171 5.59318L4.46246 5.34868C4.87304 5.19675 5.19675 4.87303 5.34868 4.46246L5.59318 3.80171Z" fill="#242628"/>
<path d="M13.5932 9.80171C14.0764 8.49579 15.9235 8.49579 16.4067 9.80171L17.1914 11.9223C17.3433 12.3329 17.6671 12.6566 18.0776 12.8085L20.1982 13.5932C21.5041 14.0764 21.5041 15.9235 20.1982 16.4067L18.0776 17.1914C17.6671 17.3433 17.3433 17.6671 17.1914 18.0776L16.4067 20.1982C15.9235 21.5041 14.0764 21.5041 13.5932 20.1982L12.8085 18.0776C12.6566 17.6671 12.3329 17.3433 11.9223 17.1914L9.80171 16.4067C8.49579 15.9235 8.49579 14.0764 9.80171 13.5932L11.9223 12.8085C12.3329 12.6566 12.6566 12.3329 12.8085 11.9223L13.5932 9.80171Z" stroke="#242628" stroke-width="1.3" stroke-linecap="round" stroke-linejoin="round"/>
<path d="M5.59318 3.80171C6.07641 2.49578 7.92349 2.49578 8.40673 3.80171L8.65123 4.46246C8.80316 4.87304 9.12687 5.19675 9.53745 5.34868L10.1982 5.59318C11.5041 6.07641 11.5041 7.92349 10.1982 8.40673L9.53745 8.65123C9.12687 8.80316 8.80316 9.12687 8.65123 9.53745L8.40673 10.1982C7.92349 11.5041 6.07641 11.5041 5.59318 10.1982L5.34868 9.53745C5.19675 9.12687 4.87303 8.80316 4.46246 8.65123L3.80171 8.40673C2.49578 7.92349 2.49578 6.07641 3.80171 5.59318L4.46246 5.34868C4.87304 5.19675 5.19675 4.87303 5.34868 4.46246L5.59318 3.80171Z" stroke="#242628" stroke-width="1.3" stroke-linecap="round" stroke-linejoin="round"/>
</svg>
