<svg width="24" height="24" viewBox="0 0 24 24" fill="none" xmlns="http://www.w3.org/2000/svg">
<path d="M12.0001 17L10.2 19.4C9.70559 20.0592 10.176 21 11 21H13.0001C13.8241 21 14.2945 20.0592 13.8001 19.4L12.0001 17ZM17.5001 11.6557C17.9075 10.1618 18.0987 8.53251 18.1539 7C18.1819 6.22084 18.1748 5.46669 18.1429 4.76805C18.0969 3.7567 17.2381 3 16.2257 3H7.7744C6.762 3 5.90325 3.7567 5.85717 4.76805C5.82534 5.46669 5.81818 6.22084 5.84622 7C5.90136 8.53251 6.09263 10.1618 6.5 11.6557C7.20781 14.2515 8.56801 16.4388 12.0001 17M12.0001 17C14.4321 16.4388 16.7923 14.2515 17.5001 11.6557M5.84622 7H5C4.44772 7 4 7.44772 4 8V10.2285C4 10.683 4.30659 11.0804 4.74629 11.1957L6.5 11.6557M18.1539 7H19.0001C19.5524 7 20.0001 7.44772 20.0001 8V10.2285C20.0001 10.683 19.6935 11.0804 19.2538 11.1957L17.5001 11.6557" stroke="#A1A3A5" stroke-width="1.5" stroke-linecap="round" stroke-linejoin="round"/>
</svg>
