<svg width="20" height="20" viewBox="0 0 20 20" fill="none" xmlns="http://www.w3.org/2000/svg">
<path d="M6.66667 5.83333V2.5M13.3333 5.83333V2.5M6.675 8.33333H6.66667M6.675 10.8333H6.66667M6.675 13.3333H6.66667M10.0083 10.8333H10M10.0083 8.33333H10M13.3417 10.8333H13.3333M10.0083 13.3333H10M13.3417 8.33333H13.3333M5 17.5H15C16.3807 17.5 17.5 16.3807 17.5 15V6.66667C17.5 5.28595 16.3807 4.16667 15 4.16667H5C3.61929 4.16667 2.5 5.28595 2.5 6.66667V15C2.5 16.3807 3.61929 17.5 5 17.5Z" stroke="#56585A" stroke-width="1.25" stroke-linecap="round" stroke-linejoin="round"/>
</svg>
