<svg width="20" height="20" viewBox="0 0 20 20" fill="none" xmlns="http://www.w3.org/2000/svg">
<path d="M12.8272 8.13158L9.91299 11.1593C9.54223 11.5445 8.92565 11.5445 8.5549 11.1593L7.64351 10.2124M6.92904 2.93911C7.58839 3.2163 8.35175 2.99215 8.75657 2.4025C9.35564 1.5299 10.6438 1.5299 11.2429 2.4025C11.6477 2.99215 12.411 3.2163 13.0704 2.93911C14.0461 2.52891 15.1298 3.22533 15.162 4.28329C15.1837 4.9982 15.7047 5.59947 16.4093 5.72275C17.4519 5.9052 17.987 7.07693 17.4421 7.98436C17.0739 8.59754 17.1871 9.38503 17.7132 9.86965C18.4916 10.5868 18.3083 11.8618 17.3593 12.3306C16.7181 12.6474 16.3876 13.3711 16.5681 14.0632C16.8353 15.0874 15.9917 16.0609 14.9399 15.9422C14.2292 15.862 13.5599 16.2921 13.3376 16.9719C13.0087 17.978 11.7727 18.3409 10.952 17.6724C10.3975 17.2207 9.60192 17.2207 9.04737 17.6724C8.22673 18.3409 6.99076 17.978 6.6618 16.9719C6.43951 16.2921 5.77021 15.862 5.05948 15.9422C4.00771 16.0609 3.16415 15.0874 3.43131 14.0632C3.61185 13.3711 3.28135 12.6474 2.64008 12.3306C1.6911 11.8618 1.50778 10.5868 2.28625 9.86965C2.81229 9.38503 2.92551 8.59754 2.55731 7.98436C2.01243 7.07693 2.54754 5.9052 3.59015 5.72275C4.29469 5.59947 4.81569 4.9982 4.83745 4.28329C4.86965 3.22533 5.95331 2.52891 6.92904 2.93911Z" stroke="#56585A" stroke-width="1.25" stroke-linecap="round" stroke-linejoin="round"/>
</svg>
