<svg width="24" height="24" viewBox="0 0 24 24" fill="none" xmlns="http://www.w3.org/2000/svg">
<path d="M6.93896 2.56445H17.062C19.4912 2.5647 21.5093 4.66639 21.5093 7.32715C21.5093 9.08887 20.617 10.6171 19.3052 11.4385L19.2173 11.5088L19.2153 11.5107C19.0994 11.6267 19.0474 11.7918 19.0767 11.9531C19.106 12.1144 19.2126 12.2515 19.3618 12.3193C21.0164 13.07 22.1664 14.7332 22.1665 16.666C22.1665 19.3014 20.029 21.4375 17.3931 21.4375H6.60498L6.35986 21.4316C3.83787 21.3023 1.8335 19.2174 1.8335 16.6641C1.83356 14.7311 2.9837 13.0681 4.63623 12.3174C4.80375 12.2413 4.91584 12.0791 4.92822 11.8955C4.94052 11.7118 4.85078 11.5363 4.69482 11.4385C3.3846 10.6169 2.49073 9.0885 2.49072 7.32715C2.49072 4.66638 4.51163 2.56445 6.93896 2.56445Z" fill="#E1F3F5" stroke="#66BFCD" stroke-linejoin="round"/>
</svg>
