<svg width="40" height="40" viewBox="0 0 40 40" fill="none" xmlns="http://www.w3.org/2000/svg">
<mask id="mask0_1601_10880" style="mask-type:alpha" maskUnits="userSpaceOnUse" x="0" y="0" width="40" height="40">
<rect width="40" height="40" fill="#D9D9D9"/>
</mask>
<g mask="url(#mask0_1601_10880)">
<mask id="mask1_1601_10880" style="mask-type:alpha" maskUnits="userSpaceOnUse" x="0" y="0" width="40" height="40">
<rect width="40" height="40" fill="#D9D9D9"/>
</mask>
<g mask="url(#mask1_1601_10880)">
<path d="M19.9864 17.9722L12.931 25.0276C12.6624 25.2962 12.3382 25.4258 11.9585 25.4163C11.5791 25.4072 11.255 25.2683 10.9864 24.9997C10.7178 24.7313 10.5835 24.4027 10.5835 24.0138C10.5835 23.625 10.7178 23.2962 10.9864 23.0276L19.0143 14.9997C19.2921 14.7219 19.6161 14.583 19.9864 14.583C20.3567 14.583 20.6807 14.7219 20.9585 14.9997L29.0143 23.0555C29.2827 23.3238 29.4168 23.6479 29.4168 24.0276C29.4168 24.4073 29.2827 24.7313 29.0143 24.9997C28.7457 25.2683 28.417 25.4026 28.0281 25.4026C27.6392 25.4026 27.3104 25.2683 27.0418 24.9997L19.9864 17.9722Z" fill="white"/>
</g>
</g>
</svg>
