<svg width="40" height="40" viewBox="0 0 40 40" fill="none" xmlns="http://www.w3.org/2000/svg">
<mask id="mask0_1092_5712" style="mask-type:alpha" maskUnits="userSpaceOnUse" x="0" y="0" width="40" height="40">
<rect width="40" height="40" fill="#D9D9D9"/>
</mask>
<g mask="url(#mask0_1092_5712)">
<path d="M18.9528 21.0474H10.2136C9.91692 21.0474 9.66831 20.9464 9.46775 20.7445C9.26692 20.5428 9.1665 20.293 9.1665 19.9949C9.1665 19.6966 9.26692 19.4484 9.46775 19.2503C9.66831 19.0523 9.91692 18.9532 10.2136 18.9532H18.9528V10.2141C18.9528 9.91741 19.0537 9.6688 19.2557 9.46824C19.4573 9.26741 19.7072 9.16699 20.0053 9.16699C20.3036 9.16699 20.5518 9.26741 20.7498 9.46824C20.9479 9.6688 21.0469 9.91741 21.0469 10.2141V18.9532H29.7861C30.0828 18.9532 30.3314 19.0542 30.5319 19.2562C30.7328 19.4578 30.8332 19.7077 30.8332 20.0057C30.8332 20.3041 30.7328 20.5523 30.5319 20.7503C30.3314 20.9484 30.0828 21.0474 29.7861 21.0474H21.0469V29.7866C21.0469 30.0832 20.9459 30.3319 20.744 30.5324C20.5423 30.7332 20.2925 30.8337 19.9944 30.8337C19.6961 30.8337 19.4479 30.7332 19.2498 30.5324C19.0518 30.3319 18.9528 30.0832 18.9528 29.7866V21.0474Z" fill="#242628"/>
</g>
</svg>
