<svg width="36" height="36" viewBox="0 0 36 36" fill="none" xmlns="http://www.w3.org/2000/svg">
<path d="M10.4082 3.84473H25.5918C29.2357 3.84473 32.2634 6.99712 32.2637 10.9883C32.2637 13.6309 30.9258 15.9232 28.958 17.1553C28.934 17.1703 28.9108 17.1865 28.8887 17.2041L28.8262 17.2607L28.8223 17.2637C28.6484 17.4376 28.5714 17.6858 28.6152 17.9277C28.6592 18.1698 28.819 18.3749 29.043 18.4766C31.525 19.6026 33.25 22.0986 33.25 24.998C33.2497 28.9509 30.0436 32.1543 26.0898 32.1543H9.90723L9.53906 32.1445C5.75633 31.9503 2.75 28.824 2.75 24.9941C2.75009 22.0947 4.47522 19.5996 6.9541 18.4736C7.20548 18.3594 7.37414 18.1163 7.39258 17.8408C7.41097 17.5654 7.27588 17.3019 7.04199 17.1553C5.07676 15.9229 3.73633 13.6302 3.73633 10.9883C3.73656 6.99734 6.76734 3.84473 10.4082 3.84473Z" fill="#E1F3F5" stroke="#66BFCD" stroke-width="1.5" stroke-linejoin="round"/>
</svg>
