<svg width="24" height="24" viewBox="0 0 24 24" fill="none" xmlns="http://www.w3.org/2000/svg">
<path d="M2 6.00016V4.00016C2 3.44787 2.44772 3.00016 3 3.00016H5C5.55228 3.00016 6 3.44787 6 4.00016V6.00016M2 6.00016H6M2 6.00016V18.0002M6 6.00016V18.0002M2 18.0002V20.0002C2 20.5524 2.44772 21.0002 3 21.0002H5C5.55228 21.0002 6 20.5524 6 20.0002V18.0002M2 18.0002H6M9 6.00016V4.00016C9 3.44787 9.44772 3.00016 10 3.00016H12C12.5523 3.00016 13 3.44787 13 4.00016V6.00016M9 6.00016H13M9 6.00016V18.0002M13 6.00016V18.0002M9 18.0002V20.0002C9 20.5524 9.44772 21.0002 10 21.0002H12C12.5523 21.0002 13 20.5524 13 20.0002V18.0002M9 18.0002H13M18.0776 18.2571L18.4266 20.2264C18.523 20.7702 19.0419 21.133 19.5858 21.0366L21.5551 20.6876C22.0989 20.5912 22.4616 20.0722 22.3652 19.5284L22.0162 17.5591L19.9221 5.74321L19.5731 3.7739C19.4767 3.23009 18.9577 2.86738 18.4139 2.96375L16.4446 3.31277C15.9008 3.40915 15.5381 3.92812 15.6345 4.47193L15.9835 6.44124M15.9835 6.44124L19.9221 5.74321M15.9835 6.44124L18.0776 18.2571M18.0776 18.2571L22.0162 17.5591" stroke="#242628" stroke-width="1.3" stroke-linecap="round" stroke-linejoin="round"/>
<rect x="2.39746" y="6.33203" width="3.25049" height="11.0757" fill="#242628"/>
<rect x="9.42041" y="6.33203" width="3.25049" height="11.0757" fill="#242628"/>
<rect x="16.4429" y="6.66016" width="3.25049" height="11.0757" transform="rotate(-9.12538 16.4429 6.66016)" fill="#242628"/>
</svg>
